<?xml version="1.0" encoding="UTF-8"?><svg id="Layer_2" xmlns="http://www.w3.org/2000/svg" viewBox="0 0 96 96"><defs><style>.cls-1{fill:#fff;}</style></defs><g id="favicon_just_parenthesis"><rect class="cls-1" width="96" height="96"/><g id="Layer_2_copy_2"><g><path d="M13,48c0-6.73,.92-12.92,2.75-18.57,1.83-5.65,4.74-10.91,8.74-15.78h14.76c-1.5,1.8-2.88,4-4.17,6.58-1.28,2.58-2.4,5.4-3.33,8.46-.94,3.06-1.67,6.24-2.2,9.53-.53,3.29-.79,6.55-.79,9.78,0,4.3,.46,8.64,1.37,13,.91,4.37,2.16,8.41,3.75,12.14,1.58,3.73,3.38,6.8,5.39,9.2h-14.76c-3.99-4.87-6.9-10.13-8.74-15.78-1.83-5.65-2.75-11.84-2.75-18.57Z"/><path d="M83,48c0,6.73-.92,12.92-2.75,18.57-1.83,5.65-4.74,10.91-8.74,15.78h-14.77c1.51-1.8,2.91-4,4.18-6.58,1.28-2.58,2.38-5.4,3.32-8.46,.94-3.06,1.67-6.24,2.2-9.53,.53-3.29,.79-6.55,.79-9.78,0-4.3-.46-8.64-1.37-13-.91-4.37-2.16-8.41-3.75-12.14-1.58-3.73-3.38-6.8-5.39-9.2h14.77c3.99,4.87,6.9,10.13,8.74,15.78,1.83,5.65,2.75,11.84,2.75,18.57Z"/></g></g></g></svg>