<?xml version="1.0" encoding="UTF-8"?><svg id="Layer_2" xmlns="http://www.w3.org/2000/svg" viewBox="0 0 96 96"><defs><style>.cls-1,.cls-2{fill:#fff;}.cls-2{stroke:#1f1f1f;stroke-miterlimit:10;stroke-width:7px;}</style></defs><g id="favicon"><rect class="cls-1" width="96" height="96"/><rect class="cls-2" x="13.5" y="13.5" width="69" height="69"/><g id="Layer_2_copy"><g><path d="M26.6,48c0-4.11,.56-7.9,1.68-11.35,1.12-3.46,2.9-6.67,5.34-9.65h9.03c-.91,1.1-1.76,2.44-2.55,4.02-.78,1.58-1.47,3.3-2.04,5.18-.57,1.87-1.02,3.82-1.35,5.83-.32,2.01-.48,4-.48,5.98,0,2.63,.28,5.28,.84,7.95,.56,2.67,1.32,5.14,2.29,7.42,.97,2.28,2.07,4.15,3.29,5.63h-9.03c-2.44-2.98-4.22-6.19-5.34-9.65-1.12-3.46-1.68-7.24-1.68-11.35Z"/><path d="M69.4,48c0,4.11-.56,7.9-1.68,11.35-1.12,3.46-2.9,6.67-5.34,9.65h-9.03c.93-1.1,1.78-2.44,2.56-4.02,.78-1.58,1.46-3.3,2.03-5.17,.57-1.87,1.02-3.81,1.35-5.83,.32-2.01,.48-4,.48-5.98,0-2.63-.28-5.28-.84-7.95-.56-2.67-1.32-5.14-2.29-7.42-.97-2.28-2.07-4.15-3.29-5.63h9.03c2.44,2.98,4.22,6.19,5.34,9.65,1.12,3.46,1.68,7.24,1.68,11.35Z"/></g></g></g></svg>